<svg width="62" height="62" viewBox="0 0 62 62" fill="none" xmlns="http://www.w3.org/2000/svg">
<g clip-path="url(#clip0_22_2274)">
<path d="M62 31C62 48.121 48.121 62 31 62C23.7533 62 17.0879 59.5128 11.8095 55.3465C10.2986 53.4326 8.56738 51.7014 6.65353 50.1905C2.48715 44.9121 0 38.2467 0 31C0 13.879 13.879 0 31 0C48.121 0 62 13.879 62 31Z" fill="#6DCCE4"/>
<path d="M13.8766 51.3276L10.6724 48.1234L25.091 33.7047L28.2953 36.909L13.8766 51.3276Z" fill="#AB2A3E"/>
<path d="M21.4558 42.8861C22.4019 43.8322 22.4019 45.3657 21.4558 46.3113L12.1543 55.6128C9.98833 53.952 8.04799 52.0117 6.38721 49.8457L15.6887 40.5437C16.6343 39.5981 18.1678 39.5981 19.1139 40.5437L21.4558 42.8861Z" fill="#F7B95F"/>
<path d="M21.4558 42.886C22.4018 43.8321 22.4018 45.3656 21.4558 46.3112L12.1543 55.6127C10.853 54.6146 9.6321 53.5172 8.50488 52.329L18.4119 42.4225C18.927 41.9069 19.6167 41.6746 20.2907 41.721L21.4558 42.886Z" fill="#FAD39C"/>
<path d="M55.5298 37.7112C46.9028 46.3382 32.9165 46.3382 24.29 37.7112C15.663 29.0847 15.663 15.0983 24.29 6.47135C32.9165 -2.15516 46.9028 -2.15516 55.5298 6.47135C64.1563 15.0983 64.1563 29.0847 55.5298 37.7112ZM12.3608 43.8728L18.1284 49.6403L19.8407 47.928L14.0737 42.1604L12.3608 43.8728Z" fill="#EC3C52"/>
<path d="M24.2903 6.46998C31.3241 -0.563863 41.9217 -1.86184 50.2715 2.57511C42.8815 1.66502 34.6722 4.41848 28.4553 10.6354C22.2383 16.8519 19.4849 25.0617 20.3954 32.4512C15.9585 24.1014 17.256 13.5043 24.2903 6.46998V6.46998Z" fill="#D73247"/>
<path d="M52.4974 9.50252C59.4494 16.4545 59.4494 27.7257 52.4974 34.6777C45.5454 41.6297 34.2742 41.6293 27.3222 34.6777C20.3702 27.7257 20.3707 16.4545 27.3222 9.50252C34.2742 2.55051 45.5454 2.55051 52.4974 9.50252V9.50252Z" fill="#AB2A3E"/>
<path d="M42.8628 33.4005C42.622 35.8503 40.4187 37.6558 37.9765 37.3483C34.7069 36.9363 31.5453 35.4756 29.0349 32.9648C22.9263 26.8562 23.0304 16.8877 29.3476 10.9106C35.398 5.18565 45.0013 5.35783 50.8545 11.2848C50.9519 11.3837 51.048 11.4835 51.1426 11.5842C55.3198 16.0453 53.7839 23.2939 48.2335 25.852C47.2605 26.3004 46.3494 26.9253 45.5472 27.7275C43.9607 29.314 43.0662 31.3296 42.8628 33.4005V33.4005Z" fill="#FFF5F5"/>
<path d="M29.9928 33.8462C29.6645 33.5685 29.3443 33.2748 29.0349 32.9649C22.9263 26.8563 23.0304 16.8878 29.3476 10.9107C33.3849 7.0906 39.0034 5.89717 44.035 7.28596C39.6713 7.07594 35.2358 8.56643 31.8385 11.7811C25.5904 17.6925 24.9764 27.222 29.9928 33.8462V33.8462Z" fill="#FBF1D1"/>
<path d="M46.0156 17.5586C46.0156 20.568 43.5758 23.0078 40.5664 23.0078C37.557 23.0078 35.1172 20.568 35.1172 17.5586C35.1172 14.5492 37.557 12.1094 40.5664 12.1094C43.5758 12.1094 46.0156 14.5492 46.0156 17.5586Z" fill="#F5CF51"/>
<path d="M37.7297 22.2117C36.163 21.2548 35.1172 19.5287 35.1172 17.5586C35.1172 14.5492 37.557 12.1094 40.5664 12.1094C42.5365 12.1094 44.2626 13.1552 45.2195 14.7219C44.3932 14.2172 43.422 13.9258 42.3828 13.9258C39.3734 13.9258 36.9336 16.3656 36.9336 19.375C36.9336 20.4142 37.225 21.3853 37.7297 22.2117Z" fill="#F7C32A"/>
<path d="M39.6382 13.4817C39.8028 13.081 41.0497 13.1572 41.8987 13.5219C43.5477 14.2305 44.2118 16.2498 43.8362 16.5899C43.2487 17.1216 39.3089 14.2825 39.6382 13.4817V13.4817Z" fill="#F8DF92"/>
</g>
<defs>
<clipPath id="clip0_22_2274">
<rect width="62" height="62" fill="white"/>
</clipPath>
</defs>
</svg>
